<?xml version="1.0" encoding="utf-8"?>
<!-- Generator: Adobe Illustrator 26.0.1, SVG Export Plug-In . SVG Version: 6.00 Build 0)  -->
<svg version="1.1" id="Layer_1" xmlns="http://www.w3.org/2000/svg" xmlns:xlink="http://www.w3.org/1999/xlink" x="0px" y="0px"
	 viewBox="0 0 157.32 50.6" style="enable-background:new 0 0 157.32 50.6;" xml:space="preserve">
<style type="text/css">
	.st0{fill:none;stroke:#000000;stroke-miterlimit:10;}
</style>
<g>
	<g>
		<rect x="-18.17" y="21.69" transform="matrix(0.0186 -0.9998 0.9998 0.0186 -19.4316 24.5878)" width="41.96" height="1"/>
	</g>
	<g>
		<path d="M29,46.08c-4.77-24.2-10.13-29.65-13.79-29.95C8.76,15.6,3.33,29.76,3.28,29.9l-0.94-0.35
			c0.23-0.61,5.79-15.01,12.95-14.42c5.82,0.49,10.77,10.84,14.69,30.76L29,46.08z"/>
	</g>
	<g>
		<path d="M42.77,47.27c-0.72,0-1.42-0.21-2.02-0.63c-3.4-2.35-6.66-9.07,3.32-28.33c-1.79-4.05-4.2-6.59-7.19-7.57
			c-5.09-1.66-10.19,1.8-10.24,1.84l-0.57-0.82c0.22-0.15,5.56-3.78,11.12-1.97c3.09,1.01,5.6,3.49,7.47,7.4
			c2.17-4.08,4.91-8.7,8.35-13.94l0.84,0.55c-3.62,5.52-6.47,10.33-8.68,14.52c0.23,0.56,0.46,1.14,0.67,1.74
			c4.23,12.13,2.04,20.81,0.36,24.9c-0.43,1.05-1.3,1.83-2.38,2.15C43.46,47.22,43.11,47.27,42.77,47.27z M44.55,19.49
			c-9.22,17.98-6.34,24.19-3.24,26.32c0.64,0.44,1.45,0.57,2.2,0.34c0.79-0.24,1.43-0.81,1.74-1.58c1.63-3.96,3.74-12.37-0.38-24.19
			C44.78,20.09,44.67,19.79,44.55,19.49z"/>
	</g>
	<g>
		<path d="M62.2,47.35l-0.93-0.36c1.42-3.73-0.3-29.74-1.41-42.98l1-0.08C60.98,5.5,64.06,42.47,62.2,47.35z"/>
	</g>
	<g>
		<path d="M81.37,47.14c-3.65,0-10.18-2.31-12.19-5.55c-1.79-2.88-2.43-7.98,1.15-13.62c2.27-3.57,4.71-5.32,7.3-5.19
			c4.34,0.22,8.01,5.76,10.32,10.38c0.29,0.58,0.55,1.18,0.77,1.79c-0.12-8.71,0.03-31.08,0.04-31.32l1,0.01
			c0,0.25-0.18,25.55-0.01,32.79c0.02,0.69,0.01,1.35-0.03,1.96c-0.01,0.25-0.03,0.49-0.05,0.72c0.06,0.57,0.09,1.13,0.09,1.7
			l0,3.05h-1l0-1.22c-1.08,2.17-2.95,3.01-5.13,4l-0.45,0.2C82.73,47.05,82.11,47.14,81.37,47.14z M77.36,23.78
			c-2.12,0-4.2,1.59-6.19,4.73c-3.33,5.25-2.77,9.93-1.14,12.55c2.23,3.6,10.7,5.79,12.72,4.87l0.46-0.21
			c2.98-1.34,5.01-2.26,5.45-6.62c-0.2-1.91-0.75-3.78-1.61-5.5c-2.19-4.38-5.62-9.63-9.48-9.83C77.5,23.78,77.43,23.78,77.36,23.78
			z"/>
	</g>
	<g>
		<g>
			<path d="M104.02,46.48c-1.6,0-3.21-0.53-4.51-1.57c-3.95-3.13-5.65-6.79-5.04-10.88c0.88-5.93,6.54-11.08,9.33-12.18
				c7.01-2.77,8.63-0.31,9.16,0.5c0.02,0.03,0.04,0.06,0.06,0.08c1.17,1.01,3.92,9.87,0.11,17.21c-1.52,2.92-3.59,5.01-6.16,6.19
				C106.03,46.27,105.03,46.48,104.02,46.48z M109.18,21.58c-1.31,0-2.99,0.4-5.01,1.2c-2.05,0.81-7.84,5.54-8.71,11.4
				c-0.55,3.71,1.02,7.06,4.67,9.95c1.82,1.44,4.34,1.76,6.41,0.8c2.36-1.09,4.27-3.02,5.69-5.75c3.67-7.05,0.76-15.32,0.15-15.97
				c-0.11-0.08-0.17-0.18-0.26-0.31C111.54,22.02,110.56,21.58,109.18,21.58z"/>
		</g>
		<g>
			<path d="M118.81,45.57c-0.83,0-1.6-0.11-2.25-0.37c-1.1-0.44-1.79-1.28-2.01-2.43c-0.89-4.75-0.04-21.73-0.01-22.45l1,0.05
				c-0.01,0.18-0.88,17.59-0.01,22.22c0.15,0.82,0.61,1.37,1.4,1.69c2.83,1.14,8.88-1.2,10.67-2.49l0.58,0.81
				C126.68,43.68,122.23,45.57,118.81,45.57z"/>
		</g>
	</g>
	<g>
		<path d="M136.25,20.7c-2.15,0-3.81-0.6-4.97-1.79c-4.83-4.97,1-18.34,1.25-18.91l0.91,0.4c-0.06,0.13-5.81,13.32-1.45,17.81
			c2.12,2.18,6.38,1.98,12.68-0.59c0.09-0.04,8.93-3.61,11.74-9.62l0.91,0.42c-2.98,6.38-11.9,9.98-12.28,10.13
			C141.54,19.98,138.6,20.7,136.25,20.7z"/>
	</g>
	<g>
		<path d="M140.25,50.6c-1.97,0-3.75-0.93-4.89-2.6c-3.57-5.23-0.43-13.61,9.31-24.89l0.76,0.65c-9.28,10.74-12.48,18.93-9.24,23.67
			c1.09,1.6,2.91,2.39,4.85,2.1c1.98-0.29,3.59-1.65,4.19-3.54c5.04-15.87,2.23-39.09,2.21-39.33l0.99-0.12
			c0.03,0.23,2.86,23.67-2.24,39.75c-0.72,2.26-2.64,3.88-5,4.23C140.87,50.57,140.56,50.6,140.25,50.6z"/>
	</g>
</g>
</svg>
